<svg xmlns="http://www.w3.org/2000/svg" shape-rendering="geometricPrecision" text-rendering="geometricPrecision" image-rendering="optimizeQuality" fill-rule="evenodd" clip-rule="evenodd" viewBox="0 0 477 512.52"><path fill="#fff" fill-rule="nonzero" d="M366.76 187.48c-24.98 25.29-46.02 46.99-64.72 66.79 41.13 47.31 82.57 91.21 159.57 160.49 10.58 9.53 16.35 18.16 15.26 26.89-1.12 9.04-8.97 16.04-25.51 21.43l-.53.14c-105.32 34.1-91.93 13.16-158.67-68.88-21.91-24.68-40.46-46.19-57.13-65.72-37.96 44.38-74.46 91.2-133.98 166.85-8.81 11.19-17.05 17.5-25.83 17.01-9.1-.52-16.59-7.9-23.06-24.05l-.18-.52c-40.96-102.85-19.2-90.84 58.26-162.87 24.98-25.29 46.02-46.99 64.72-66.79-41.13-47.31-82.57-91.21-159.57-160.49C4.81 88.23-.96 79.6.13 70.87c1.12-9.04 8.97-16.04 25.51-21.43l.53-.14c105.32-34.11 91.93-13.16 158.67 68.88 21.9 24.68 40.46 46.19 57.13 65.72 37.96-44.38 74.46-91.2 133.98-166.85C384.76 5.86 393-.45 401.78.04c9.1.52 16.59 7.9 23.06 24.05l.18.52c40.96 102.85 19.2 90.84-58.26 162.87z"/></svg>